
<svg xmlns="http://www.w3.org/2000/svg" version="1.1" xmlns:xlink="http://www.w3.org/1999/xlink" preserveAspectRatio="none" x="0px" y="0px" width="385px" height="512px" viewBox="0 0 385 512">
<defs>
<g id="Layer0_0_FILL">
<path fill="#D3DC3E" stroke="none" d="
M 448.4 14.85
Q 449.25 11.25 447.9 7.75 446.55 4.2 443.5 2.1 440.45 0 436.65 0
L 257.5 0
Q 253.1 0 249.8 2.85 246.45 5.65 245.65 10 244.65 15.3 239.55 24.7 231.15 40.3 213.85 62.35
L 212.85 63.6
Q 207.65 70.15 199.8 79.55
L 199.8 79.5 192.6 87.85
Q 177.7 105.2 157.05 126.85
L 152.1 132.1
Q 136.5 148.3 118.4 166.2 115.5 168.6 111.35 173.7 103.8 182.9 98 194.85 79.8 232.25 84.6 282.8
L 85.6 294.2 85.55 294.2 85.9 298.85
Q 87.7 324.75 86.95 346.55
L 86.9 348
Q 86.55 355.7 86.1 361.6 84.75 379 80 403.15 77.3 416.9 71.2 443.45 67.2 460.6 65.75 468 63.45 479.25 63.25 484.95 63 492.9 67.25 498.9 73.4 507.6 88.1 510.7 94.15 512 100.8 512 113 512 124.8 507.3 132.65 504.8 139.25 500.1 147.7 494.1 154.9 484.05
L 155.15 483.75
Q 165.5 469.7 175.15 450.55 187.4 426.25 197.75 395.25
L 197.8 395.2
Q 200.1 388.3 203.3 377.75
L 204.1 375.05
Q 207.3 364 208.9 357.7
L 209.1 357.1
Q 217.2 326.25 242.25 306.3 267.3 286.3 299.1 285.5 309.05 285.3 318.35 282.4 327.4 279.6 335.15 274.5 342.5 269.55 347.3 263.8 350.05 260.6 352.3 256.95
L 352.6 256.5
Q 359.85 244.65 360.1 231.55 360.4 219.25 354.55 205.95 351.9 199.9 348.3 194.2 346.6 191.5 344.2 187.35
L 343.25 185.65
Q 341.5 182.5 340.4 180.3
L 334.25 166.5
Q 323.15 137.1 332.9 116.3
L 333.15 115.8
Q 336.3 109.5 341.3 104
L 343.25 102.1
Q 344.55 100.8 345.3 100.2
L 348 97.85
Q 350.85 95.5 354.25 93.35 356.85 91.75 358.8 90.35
L 362.55 87.85 362.85 87.6
Q 367.45 84.4 371.1 81.7
L 371.35 81.55 409.15 52.1 408.6 52.1
Q 427.55 36.4 444.75 20.95 447.55 18.45 448.4 14.85
M 422.6 17.4
Q 400.4 36.8 381.15 52.1
L 242.8 52.1
Q 257.45 30.75 261.65 17.4
L 422.6 17.4
M 174.6 133.6
L 175.5 132.6
Q 179.7 128.2 186.75 120.55
L 187.15 120.1
Q 191.8 115.05 198.55 107.45
L 255.1 185.85
Q 240.15 192.95 223.8 201.85
L 174.6 133.6
M 313.15 120.75
Q 308.5 139.8 314.95 162.85 293.7 168.9 271.25 178.6
L 229.5 120.75 313.15 120.75
M 123.95 185.65
Q 127.4 181.35 130.1 179 147.75 161.6 162.4 146.4
L 208.6 210.35
Q 157.75 239.75 101.95 281.7
L 101.9 281.2
Q 97.65 236.6 112.8 204.1 117.6 193.7 123.95 185.65
M 329.5 91.3
L 328.25 92.65
Q 326.05 95 324.35 97.35
L 323.7 98.2
Q 321.65 100.9 320.35 103.15
L 320.2 103.4 217 103.4 210.3 94.05
Q 218.8 84.1 226.4 74.45
L 230.45 69.45 358.45 69.45 344.65 78.95
Q 340.45 81.6 336.1 85.2
L 334.7 86.4
Q 332 88.75 329.5 91.3
M 325.05 188.2
L 327.1 192.3
Q 330.8 199 333.6 203.45 336.05 207.4 337.55 210.5 340.7 217 341.9 222.9
L 333.55 224.6
Q 330.05 225.35 327.65 228 325.2 230.75 320.35 232.05 315.5 233.35 307.1 233.55
L 303.8 233.65
Q 277.3 234.5 252.2 244.2 227.7 253.7 207.05 270.65 186.4 287.6 171.85 310.2 156.9 333.4 149.9 360.15 136.95 409.45 120.8 446.4 108.45 474.5 95.15 493.65
L 94.9 494.15
Q 92.7 493.95 91.7 493.75 84.4 492.2 81.9 489.35 80.55 487.75 80.6 485.5 80.75 481.05 82.95 470.3 84.25 464.15 88.1 447.4 94.25 420.7 97.1 406.1 101.95 381.3 103.4 363 103.75 358.65 104.15 349.95
L 104.25 347.95
Q 105.05 326.8 103.5 302.3 131.25 281.05 159.15 262.15 195.1 237.7 227.9 219.5 239.8 212.9 248.45 208.55
L 250.7 207.4
Q 259.95 202.75 270.3 198.05
L 276.75 195.1
Q 300.05 184.95 320.65 179.15
L 321.85 181.6
Q 323.5 185.25 325.05 188.2
M 340.85 241.05
Q 340.1 243.15 338.6 245.95
L 338.05 247
Q 336.5 249.75 334.05 252.6 328 259.8 318.65 263.85 309.3 267.95 297.95 268.2
L 296.25 268.25
Q 259.85 269.4 230.9 292.75 201.9 316.15 192.5 352.05
L 192 353.8
Q 189.75 362.3 187.5 369.95
L 186.75 372.5
Q 167.75 436.15 141.15 473.5 138.65 476.85 136.4 479.15 128.95 486.75 119.15 490.95
L 117.2 491.5
Q 129.8 470.6 141.15 442.7 155.25 408.1 166.7 364.55 172.85 340.95 186.4 320.15 199.55 299.95 218.15 284.6 236.8 269.25 258.6 260.6 281.05 251.75 304.35 251
L 307.55 250.9
Q 317.6 250.65 324.2 249 333.35 246.7 339.05 241.2
L 340.9 240.85 340.85 241.05 Z"/>
</g>
</defs>

<g transform="matrix( 1, 0, 0, 1, -63.25,0) ">
<use xlink:href="#Layer0_0_FILL"/>
</g>
</svg>
