
<svg xmlns="http://www.w3.org/2000/svg" version="1.1" xmlns:xlink="http://www.w3.org/1999/xlink" preserveAspectRatio="none" x="0px" y="0px" width="511px" height="302px" viewBox="0 0 511 302">
<defs>
<g id="Layer0_0_FILL">
<path fill="#D3DC3E" stroke="none" d="
M 388 105
L 365.1 105
Q 352.35 105 343.3 114.05 334.25 123.1 334.25 135.85
L 334.25 211.65 177.7 211.65 177.7 135.85
Q 177.7 123.1 168.65 114.05 159.6 105 146.85 105
L 123.95 105
Q 111.15 105 102.15 114.05 93.1 123.1 93.1 135.85
L 93.1 156.85 72.3 156.85
Q 59.55 156.85 50.5 165.9 41.45 174.95 41.45 187.7
L 41.45 215.9 29.8 215.9
Q 17.45 215.9 8.75 224.95 0 234 0 246.75
L 0 269.4
Q 0 282.15 8.75 291.2 17.45 300.25 29.8 300.25
L 41.45 300.25 41.45 334.05
Q 41.45 346.8 50.5 355.85 59.55 364.9 72.3 364.9
L 93.05 364.9 93.05 376.2
Q 93.05 388.95 102.1 398 111.15 407.05 123.9 407.05
L 146.85 407.05
Q 159.6 407.05 168.65 398 177.7 388.95 177.7 376.2
L 177.7 296.25 334.25 296.25 334.25 376.2
Q 334.25 388.95 343.3 398 352.35 407.05 365.1 407.05
L 388 407.05
Q 400.75 407.05 409.8 398 418.85 388.95 418.85 376.2
L 418.85 355.2 439.65 355.2
Q 452.4 355.2 461.45 346.15 470.5 337.1 470.5 324.35
L 470.5 296.15 482.15 296.15
Q 494.5 296.15 503.2 287.1 511.95 278.05 511.95 265.3
L 511.95 242.65
Q 511.95 229.9 503.2 220.85 494.5 211.8 482.15 211.8
L 470.5 211.8 470.5 178
Q 470.5 165.25 461.45 156.2 452.4 147.15 439.65 147.15
L 418.85 147.15 418.85 135.85
Q 418.85 123.1 409.8 114.05 400.75 105 388 105
M 397 126.9
Q 400.7 130.6 400.7 135.85
L 400.7 376.2
Q 400.7 381.45 397 385.2 393.25 388.9 388 388.9
L 365.1 388.9
Q 359.85 388.9 356.15 385.2 352.4 381.45 352.4 376.2
L 352.4 135.85
Q 352.4 130.6 356.15 126.9 359.85 123.15 365.1 123.15
L 388 123.15
Q 393.25 123.15 397 126.9
M 418.85 165.3
L 439.65 165.3
Q 444.9 165.3 448.65 169.05 452.35 172.75 452.35 178
L 452.35 324.35
Q 452.35 329.6 448.65 333.35 444.9 337.05 439.65 337.05
L 418.85 337.05 418.85 165.3
M 470.5 229.95
L 482.15 229.95
Q 487 229.95 490.4 233.7 493.85 237.4 493.85 242.65
L 493.85 265.3
Q 493.85 270.55 490.4 274.3 487 278 482.15 278
L 470.5 278 470.5 229.95
M 334.25 229.8
L 334.25 278.1 177.7 278.1 177.7 229.8 334.25 229.8
M 63.35 178.75
Q 67.05 175 72.3 175
L 93.1 175 93.1 346.75 72.3 346.75
Q 67.05 346.75 63.35 343.05 59.6 339.3 59.6 334.05
L 59.6 187.7
Q 59.6 182.45 63.35 178.75
M 155.85 126.9
Q 159.55 130.6 159.55 135.85
L 159.55 376.2
Q 159.55 381.45 155.85 385.2 152.1 388.9 146.85 388.9
L 123.95 388.9
Q 118.65 388.9 114.95 385.2 111.25 381.45 111.25 376.2
L 111.25 135.85
Q 111.25 130.6 114.95 126.9 118.65 123.15 123.95 123.15
L 146.85 123.15
Q 152.1 123.15 155.85 126.9
M 21.55 237.8
Q 24.95 234.05 29.8 234.05
L 41.45 234.05 41.45 282.1 29.8 282.1
Q 24.95 282.1 21.55 278.4 18.1 274.65 18.1 269.4
L 18.1 246.75
Q 18.1 241.5 21.55 237.8 Z"/>
</g>
</defs>

<g transform="matrix( 1, 0, 0, 1, 0,-105) ">
<use xlink:href="#Layer0_0_FILL"/>
</g>
</svg>
