
<svg xmlns="http://www.w3.org/2000/svg" version="1.1" xmlns:xlink="http://www.w3.org/1999/xlink" preserveAspectRatio="none" x="0px" y="0px" width="463px" height="512px" viewBox="0 0 463 512">
<defs>
<g id="Layer0_0_FILL">
<path fill="#D3DC3E" stroke="none" d="
M 335.55 72.85
Q 335.55 58.05 329.8 44.55 324.25 31.45 314.2 21.35 304.1 11.3 291 5.75 277.5 0 262.7 0 247.9 0 234.35 5.75 221.3 11.3 211.2 21.4 201.1 31.45 195.6 44.55 189.85 58.1 189.85 72.9 189.85 90.1 197.55 105.45 204.95 120.25 218.1 130.45
L 215.35 130.45
Q 202.3 130.45 190.35 135.3 178.45 140.15 169.1 149.25
L 129 188.2
Q 124.75 192.5 122.5 197.95 120.2 203.45 120.2 209.45 120.2 215.45 122.5 220.95 124.75 226.4 129 230.7
L 176.9 278.55
Q 179.35 281.05 182.45 283
L 159 306.45 128.2 275.6
Q 119.55 267 107.2 266.65 94.9 266.3 86.1 274.45 81.6 278.7 79.1 284.25 76.6 289.8 76.5 295.95 76.4 302.1 78.65 307.75 80.95 313.35 85.3 317.7
L 137.75 370.15
Q 142 374.4 147.5 376.7 153 378.95 159 378.95 165.05 378.95 170.55 376.7 176 374.4 180.25 370.15
L 229.05 321.4
Q 240 320.95 250.35 317.5
L 285.5 401.8
Q 286.55 404.3 287.95 406.5
L 60.1 406.5
Q 45.25 406.5 34.75 417 24.25 427.5 24.25 442.35 24.25 449.55 26.95 456.05 29.65 462.6 34.75 467.7 40.05 473 47.05 475.75
L 47.05 492.35
Q 47.05 500.5 52.8 506.25 58.55 512 66.7 512 70.65 512 74.25 510.55 77.85 509.05 80.6 506.25 83.4 503.5 84.85 499.9 86.35 496.3 86.35 492.35
L 86.35 478.2 399.8 478.2 399.8 492.35
Q 399.8 500.5 405.55 506.25 411.3 512 419.45 512 427.6 512 433.35 506.25 439.1 500.5 439.1 492.35
L 439.1 475.6
Q 449.25 471.55 455.35 462.55 461.55 453.45 461.55 442.35 461.55 435.15 458.85 428.65 456.15 422.05 451.05 417 445.9 411.85 439.1 409.1
L 439.1 287.1 483.85 264.85
Q 486.45 263.6 487.35 260.85 488.3 258.15 487 255.55
L 477.4 236.25
Q 476 233.6 473.4 232.75 470.65 231.8 468.1 233.1
L 347.2 293.15
Q 344.6 294.45 343.7 297.15 342.8 299.85 344.05 302.45
L 353.65 321.8
Q 355.05 324.4 357.65 325.25 358.85 325.65 359.9 325.65 361.55 325.65 362.95 324.9
L 399.8 306.65 399.8 406.5 338.55 406.5
Q 340.15 404 341 401.8 343.35 396.25 343.35 390.3 343.35 384.35 341 378.8
L 297.2 273.3
Q 300.75 264.65 302.05 254.75
L 318.65 254.75
Q 331.05 254.75 339.9 245.95 348.7 237.15 348.7 224.7 348.7 212.3 339.9 203.45 331.05 194.65 318.65 194.65
L 302.7 194.65 302.7 190
Q 302.7 176.15 296.65 163.85 290.8 151.9 280.35 143.55 304.35 137.5 319.8 118 335.55 98.15 335.55 72.85
M 423.55 275.95
Q 425.25 277.65 425.25 280.05
L 425.25 492.35
Q 425.25 494.75 423.55 496.45 421.85 498.15 419.45 498.15 417.05 498.15 415.35 496.45 413.65 494.75 413.65 492.35
L 413.65 280.05
Q 413.65 277.65 415.35 275.95 417.05 274.25 419.45 274.25 421.85 274.25 423.55 275.95
M 437.55 272.35
Q 435.95 268.65 433.15 265.95
L 468.05 248.6 471.45 255.55 437.55 272.35
M 334.8 224.7
Q 334.8 231.4 330.05 236.1 325.35 240.85 318.65 240.85
L 302.7 240.85 302.7 208.55 318.65 208.55
Q 325.35 208.55 330.05 213.3 334.8 218.05 334.8 224.7
M 399.8 282.5
L 399.8 291.15 363 309.4 359.6 302.5 399.8 282.5
M 304.35 31.2
Q 321.65 48.5 321.65 72.9 321.65 97.3 304.35 114.55 287.1 131.85 262.7 131.85 238.3 131.85 221 114.55 203.7 97.3 203.7 72.9 203.7 48.5 221 31.2 238.3 13.9 262.7 13.9 287.1 13.9 304.35 31.2
M 208.9 176.55
Q 206.05 176.55 204 178.55
L 178 204.55
Q 176 206.6 176 209.45 176 212.35 178 214.35
L 209.15 245.5
Q 213.85 250.2 214.1 256.95 214.35 263.6 209.95 268.35 205.35 273.35 198.4 273.5 191.45 273.5 186.7 268.75
L 138.85 220.9
Q 134.1 216.25 134.1 209.45 134.1 202.85 138.75 198.1
L 178.75 159.2
Q 186.15 152 195.6 148.15 205.05 144.3 215.35 144.3
L 243.15 144.3
Q 262.05 144.3 275.45 157.7 288.85 171.1 288.85 190
L 288.85 244.85
Q 288.85 270.75 270.45 289.15 252.05 307.55 226.1 307.55 223.25 307.55 221.2 309.6
L 170.45 360.35
Q 165.7 365.1 159 365.1 152.35 365.1 147.6 360.35
L 95.15 307.9
Q 90.3 303.05 90.4 296.2 90.55 289.25 95.55 284.65 100.05 280.45 106.4 280.45 109.7 280.45 112.8 281.7 115.95 283 118.4 285.45
L 154.1 321.15
Q 156.15 323.2 159 323.2 161.9 323.2 163.9 321.15
L 197.55 287.35 198.65 287.35
Q 204.85 287.25 210.4 284.75 215.9 282.3 220.15 277.8 228.3 269 227.95 256.7 227.6 244.3 219 235.7
L 192.75 209.45 213.8 188.35
Q 215.85 186.35 215.85 183.45 215.85 180.6 213.8 178.55 211.8 176.55 208.9 176.55
M 263.1 311.9
Q 278.5 303.35 288.75 288.85
L 328.2 384.1
Q 330.75 390.3 328.2 396.5 325.65 402.7 319.45 405.25 316.35 406.5 313.3 406.5
L 313.25 406.5
Q 310.25 406.5 307.1 405.25 300.95 402.7 298.3 396.45
L 263.1 311.9
M 44.55 426.8
Q 51 420.35 60.1 420.35
L 399.8 420.35 399.8 464.3 60.1 464.3
Q 55.65 464.3 51.65 462.65 47.65 461 44.55 457.9 41.45 454.8 39.75 450.75 38.1 446.75 38.1 442.35 38.1 433.25 44.55 426.8
M 72.5 478.2
L 72.5 492.35
Q 72.5 494.65 70.8 496.45 69.1 498.15 66.7 498.15 64.3 498.15 62.6 496.45 60.9 494.75 60.9 492.35
L 60.9 478.2 72.5 478.2
M 446 433.95
Q 447.65 437.95 447.65 442.35 447.65 447.45 445.35 452.1 443.1 456.65 439.1 459.7
L 439.1 424.95
Q 440.25 425.8 441.25 426.8 444.35 429.9 446 433.95 Z"/>
</g>
</defs>

<g transform="matrix( 1, 0, 0, 1, -24.25,0) ">
<use xlink:href="#Layer0_0_FILL"/>
</g>
</svg>
