
<svg xmlns="http://www.w3.org/2000/svg" version="1.1" xmlns:xlink="http://www.w3.org/1999/xlink" preserveAspectRatio="none" x="0px" y="0px" width="511px" height="390px" viewBox="0 0 511 390">
<defs>
<g id="Layer0_0_FILL">
<path fill="#D3DC3E" stroke="none" d="
M 430.4 88
Q 395.95 60.65 341.45 60.65 289.7 60.65 255.95 85.45 222.2 60.65 170.5 60.65 116 60.65 81.55 88 47.15 115.3 36.95 166.6 19.55 173.8 10.05 187.8 0.55 201.75 0 221
L 0 226.95
Q 1.35 257.1 16.45 283.65 31.6 310.15 57.75 328.3 72.9 338.85 93 346.2
L 93 420.35
Q 93 433.2 102.1 442.3 111.25 451.4 124.1 451.4
L 216.25 451.4
Q 229.1 451.4 238.25 442.3 247.35 433.2 247.35 420.35
L 247.35 341
Q 251.4 338.6 256 335.2 260.1 338.25 264.6 341
L 264.6 420.35
Q 264.6 433.2 273.7 442.3 282.85 451.4 295.7 451.4
L 387.85 451.4
Q 400.7 451.4 409.85 442.3 418.95 433.2 418.95 420.35
L 418.95 346.2
Q 439.05 338.85 454.2 328.3 480.4 310.1 495.5 283.6 510.6 257.05 511.95 226.85
L 511.95 221
Q 511.45 201.75 501.9 187.8 492.4 173.8 475 166.6 464.8 115.3 430.4 88
M 419.85 103.55
Q 449.4 127.75 457.5 174.5 459.1 187 457.65 198.1 455.5 214.55 446.85 224.8 444.35 227.75 444.65 231.6 445 235.45 447.95 237.95 450.6 240.15 453.95 240.15 458.25 240.15 461.1 236.85 469.65 226.75 473.6 212.8 476.75 201.7 476.85 188.7 492.6 199.6 493.3 221.4
L 493.3 226.15
Q 492.2 251.85 479.15 274.6 466.15 297.3 443.55 312.95 428.1 323.7 406.75 330.7 390.5 335.3 369.7 337.45 365.85 337.85 363.4 340.85 361 343.85 361.35 347.7 361.75 351.3 364.4 353.7 367.1 356.1 370.65 356.1
L 371.6 356.05
Q 386.95 354.4 400.3 351.5
L 400.3 420.3
Q 400.3 425.45 396.65 429.1 393 432.75 387.85 432.75
L 295.7 432.75
Q 290.55 432.75 286.95 429.1 283.3 425.45 283.3 420.3
L 283.3 348.75
Q 297.95 353.3 313.9 355.45
L 315.15 355.55
Q 318.6 355.55 321.25 353.25 323.9 350.95 324.4 347.45 324.9 343.6 322.55 340.55 320.2 337.5 316.4 336.95 295.95 334.2 277.95 327.1 273.95 324.9 270.45 322.55 289.05 303.25 298.55 274.95 308.1 246.55 308.1 210.3 308.1 174 298.45 145.55 288.9 117.4 270.4 98.1 298.45 79.3 341.45 79.3 390.3 79.3 419.85 103.55
M 249.4 169.15
Q 246.3 171.6 245.9 175.5 244.35 190.5 238.45 201.75 232.55 212.95 222.1 220.85 204.7 233.95 175.85 237.15 157.45 239.2 137.65 237.1 140.3 228.6 140.3 218.75 140.3 191.7 121.7 176.45 103.05 161.2 70.1 161.2 63.15 161.2 57.15 161.85 67.55 121.25 96.3 100.3 125.1 79.3 170.5 79.3 229.3 79.3 259.8 114.1 289.45 147.95 289.45 210.3 289.45 246.95 278.85 274.4 264.85 310.55 233.6 327.35
L 228.65 330 228.65 420.35
Q 228.65 425.5 225 429.1 221.4 432.75 216.25 432.75
L 197.2 432.75 197.2 404.8 207.55 404.8
Q 211.45 404.8 214.3 402.2 217.2 399.55 217.3 395.75 217.4 391.8 214.65 388.95 211.9 386.1 207.95 386.1
L 197.2 386.1 197.2 370.3 207.55 370.3
Q 211.45 370.3 214.3 367.7 217.2 365.05 217.3 361.25 217.4 357.3 214.65 354.5 211.9 351.65 207.95 351.65
L 197.2 351.65 197.2 330.5
Q 197.2 319.85 189.95 312.05 182.65 304.2 172.1 303.8 161 303.4 153.05 311.1 145.05 318.85 145.05 329.9
L 145.05 351.65 134.65 351.65
Q 130.8 351.65 127.95 354.25 125.05 356.9 124.95 360.7 124.85 364.65 127.6 367.5 130.3 370.3 134.25 370.3
L 145.05 370.3 145.05 386.1 134.65 386.1
Q 130.8 386.1 127.95 388.7 125.05 391.35 124.95 395.15 124.8 399.1 127.55 401.95 130.3 404.8 134.25 404.8
L 145.05 404.8 145.05 432.75 124.1 432.75
Q 118.95 432.75 115.3 429.1 111.65 425.5 111.65 420.35
L 111.65 332.8 105.25 330.7
Q 83.7 323.65 68.4 312.95 45.8 297.3 32.8 274.6 19.8 251.85 18.65 226.15
L 18.65 221.4
Q 19.5 193.4 45.2 183.4 49.55 181.7 57.5 180.7 64.2 179.85 70.1 179.85 91.8 179.85 104.65 187.25 121.6 196.95 121.6 218.75 121.6 240.55 104.65 250.25 91.8 257.65 70.1 257.65 65.35 257.65 60.3 257.25 56.25 256.85 53.1 259.5 49.95 262.15 49.8 266.15 49.65 269.85 52.1 272.65 54.55 275.45 58.25 275.8 64.3 276.35 70.1 276.35 89.7 276.35 104.6 270.75 119.3 265.2 128.15 254.65 141.05 256.85 157.5 256.85 177.8 256.85 195.1 252.8 217.6 247.55 233.25 235.8 235.95 233.75 238.3 231.65
L 254.85 246
Q 257.45 248.3 260.95 248.3 265.35 248.3 268.2 244.85 270.6 241.9 270.1 238 269.65 234.2 266.75 231.65
L 250.6 217.65
Q 262 200.9 264.45 177.85 264.85 174 262.55 170.9 260.2 167.75 256.4 167.25 252.45 166.75 249.4 169.15
M 176.35 324.65
Q 178.55 326.85 178.55 329.9
L 178.55 351.65 163.7 351.65 163.7 329.9
Q 163.7 326.8 165.85 324.65 168.05 322.45 171.1 322.45 174.2 322.45 176.35 324.65
M 163.7 370.3
L 178.55 370.3 178.55 386.1 163.7 386.1 163.7 370.3
M 163.7 404.8
L 178.55 404.8 178.55 432.75 163.7 432.75 163.7 404.8 Z"/>
</g>
</defs>

<g transform="matrix( 1, 0, 0, 1, 0,-60.65) ">
<use xlink:href="#Layer0_0_FILL"/>
</g>
</svg>
