
<svg xmlns="http://www.w3.org/2000/svg" version="1.1" xmlns:xlink="http://www.w3.org/1999/xlink" preserveAspectRatio="none" x="0px" y="0px" width="511px" height="408px" viewBox="0 0 511 408">
<defs>
<g id="Layer0_0_FILL">
<path fill="#D3DC3E" stroke="none" d="
M 510.65 139.3
Q 509.35 138 507.5 138
L 157.1 138 157.1 130.15
Q 157.1 114.2 150.9 99.6 144.95 85.5 134.1 74.6 123.2 63.7 109.1 57.75 94.5 51.55 78.55 51.55 62.6 51.55 48 57.75 33.9 63.7 23.05 74.6 12.15 85.5 6.2 99.6 0 114.2 0 130.15
L 0 381.9
Q 0 397.85 6.2 412.45 12.15 426.55 23 437.45 33.9 448.35 48 454.3 62.6 460.5 78.55 460.5
L 507.5 460.5
Q 509.35 460.5 510.65 459.2 511.95 457.9 511.95 456
L 511.95 142.45
Q 511.95 140.6 510.65 139.3
M 29.35 80.95
Q 49.75 60.5 78.55 60.5 107.35 60.5 127.8 80.95 148.2 101.35 148.2 130.15
L 148.2 345.6
Q 138.15 326.45 119.8 315.05 100.9 303.35 78.55 303.35 56.25 303.35 37.3 315.05 18.95 326.45 8.9 345.6
L 8.9 130.15
Q 8.9 101.35 29.35 80.95
M 29.35 332.65
Q 49.75 312.25 78.55 312.25 107.35 312.25 127.75 332.65 148.15 353.1 148.2 381.85 148.15 410.65 127.75 431.1 107.35 451.5 78.55 451.5 49.75 451.5 29.35 431.1 8.9 410.65 8.9 381.85 8.9 353.1 29.35 332.65
M 430.45 192.3
Q 429.1 191 427.25 191
L 157.1 191 157.1 146.95 503.05 146.95 503.05 451.55 114.85 451.55
Q 134 441.5 145.4 423.15 157.1 404.25 157.1 381.9
L 157.1 199.9 427.25 199.9
Q 429.1 199.9 430.45 198.6 431.75 197.3 431.75 195.45 431.75 193.6 430.45 192.3 Z"/>
</g>

<g id="Layer0_1_FILL">
<path fill="#D3DC3E" stroke="none" d="
M 78.55 328.05
Q 56.3 328.05 40.5 343.85 24.7 359.65 24.7 381.9 24.7 404.2 40.5 419.95 56.3 435.75 78.55 435.75 100.85 435.75 116.6 419.95 132.4 404.2 132.4 381.9 132.4 359.65 116.6 343.85 100.85 328.05 78.55 328.05
M 46.8 350.15
Q 59.95 336.95 78.55 336.95 97.15 336.95 110.35 350.15 123.5 363.35 123.5 381.9 123.5 400.5 110.35 413.7 97.15 426.85 78.55 426.85 59.95 426.85 46.8 413.7 33.6 400.5 33.6 381.9 33.6 363.35 46.8 350.15 Z"/>
</g>

<g id="Layer0_2_FILL">
<path fill="#D3DC3E" stroke="none" d="
M 58.25 361.6
Q 49.8 370 49.8 381.9 49.8 393.8 58.25 402.2 66.65 410.65 78.55 410.65 90.45 410.65 98.85 402.2 107.3 393.8 107.3 381.9 107.3 370 98.85 361.6 90.45 353.15 78.55 353.15 66.65 353.15 58.25 361.6
M 64.55 367.9
Q 70.4 362.1 78.55 362.1 86.75 362.1 92.55 367.9 98.35 373.75 98.35 381.9 98.35 390.1 92.55 395.9 86.75 401.7 78.55 401.7 70.4 401.7 64.55 395.9 58.75 390.1 58.75 381.9 58.75 373.75 64.55 367.9 Z"/>
</g>

<g id="Layer0_3_FILL">
<path fill="#D3DC3E" stroke="none" d="
M 379.65 285.3
Q 378.3 285.3 377.15 286.05 366.3 293.3 358.25 303.55 350.3 313.6 345.75 325.65 331.55 320.25 316.45 320.25 308.45 320.25 300.35 321.85 299 322.1 298.05 323.1 297.1 324.05 296.85 325.35 292.8 345.65 298.8 365.4 304.75 385.1 319.4 399.75 331.05 411.4 346.1 417.65 361.1 423.85 377.65 423.85
L 382.2 423.85
Q 398.7 423.85 413.75 417.65 428.8 411.4 440.45 399.75 455.05 385.15 461.05 365.4 467 345.7 463 325.35 462.75 324.05 461.75 323.1 460.8 322.1 459.45 321.85 451.45 320.25 443.35 320.25 427.95 320.25 413.6 325.8 409.1 313.7 401.15 303.6 393.05 293.35 382.15 286.05 381.05 285.3 379.65 285.3
M 343.05 334.15
L 343.05 334.3 341.5 341.8 340.65 349.45 340.6 358.4 341.45 367 341.5 367.2
Q 341.65 368.35 342.15 370.9
L 344.3 379.35 345.75 383.5
Q 346 384.15 347.1 386.9
L 347.25 387.25
Q 347.8 388.65 348.75 390.5
L 348.95 390.9
Q 349.45 392 350.6 394.15
L 357.75 405.05
Q 360.35 408.3 362.65 410.75
L 363.1 411.25
Q 364.75 413 365.65 413.8
L 365.8 414
Q 354.4 412.15 344.25 406.95 333.95 401.7 325.7 393.45 313.25 380.95 307.8 364.2 302.35 347.5 305.05 330.1 310.75 329.2 316.45 329.2 330.4 329.2 343.05 334.15
M 350.25 343.65
L 352.7 333
Q 356.15 321.7 363.05 312.05 369.95 302.3 379.65 295.2 389.4 302.3 396.35 312.05 403.2 321.75 406.65 333.1
L 409.05 343.7 409.05 343.75 409.65 348.7 409.75 359.1 408.65 367.95 405.85 378.65 400.05 391.35 396.5 396.9 395.45 398.25 395.2 398.65 394 400.15 393.85 400.4
Q 391.9 402.85 389.45 405.45
L 384.65 410 379.65 413.95 373.05 408.55 369.9 405.45
Q 367.1 402.45 365.5 400.4
L 365.35 400.25 362.85 396.9 357.2 387.5 353.75 379.45 352.15 374.4 350.3 365.75 349.45 354.6 350.25 343.65
M 416.3 334.35
Q 425.4 330.75 435.25 329.65 445.1 328.55 454.75 330.1 457.5 347.5 452.05 364.2 446.65 380.95 434.15 393.45 425.75 401.8 415.35 407.1 404.95 412.35 393.4 414.1
L 393.6 413.9
Q 395.75 411.75 396.15 411.3
L 396.6 410.85 401.5 405.15 406.3 398.25 412.2 386.95 415 379.4 415.05 379.1 417.85 367.25 417.85 367.05
Q 418.15 365.25 418.3 363.45
L 418.4 362.8 418.65 359.1 418.45 346.9
Q 417.9 340.8 416.3 334.35 Z"/>
</g>

<g id="Layer0_4_FILL">
<path fill="#D3DC3E" stroke="none" d="
M 448.65 192.3
Q 447.35 193.6 447.35 195.45 447.35 197.3 448.65 198.6 449.95 199.9 451.8 199.9
L 482.3 199.9
Q 484.15 199.9 485.45 198.6 486.75 197.3 486.75 195.45 486.75 193.6 485.45 192.3 484.15 191 482.3 191
L 451.8 191
Q 449.95 191 448.65 192.3 Z"/>
</g>

<g id="Layer0_5_FILL">
<path fill="#D3DC3E" stroke="none" d="
M 36.25 84.2
Q 34.95 85.5 34.95 87.35
L 34.95 253.75
Q 34.95 255.6 36.25 256.9 37.6 258.2 39.45 258.2 41.3 258.2 42.6 256.9 43.9 255.6 43.9 253.75
L 43.9 87.35
Q 43.9 85.5 42.6 84.2 41.3 82.9 39.45 82.9 37.6 82.9 36.25 84.2 Z"/>
</g>
</defs>

<g transform="matrix( 1, 0, 0, 1, 0,-51.55) ">
<use xlink:href="#Layer0_0_FILL"/>
</g>

<g transform="matrix( 1, 0, 0, 1, 0,-51.55) ">
<use xlink:href="#Layer0_1_FILL"/>
</g>

<g transform="matrix( 1, 0, 0, 1, 0,-51.55) ">
<use xlink:href="#Layer0_2_FILL"/>
</g>

<g transform="matrix( 1, 0, 0, 1, 0,-51.55) ">
<use xlink:href="#Layer0_3_FILL"/>
</g>

<g transform="matrix( 1, 0, 0, 1, 0,-51.55) ">
<use xlink:href="#Layer0_4_FILL"/>
</g>

<g transform="matrix( 1, 0, 0, 1, 0,-51.55) ">
<use xlink:href="#Layer0_5_FILL"/>
</g>
</svg>
